Coordinates
version=1
nRows=12
nColumns=24
inDegrees=yes

Units are S.I. units (second, meters, Newtons, ...)
Angles are in degrees.

endheader
time	pelvis_tilt	pelvis_list	pelvis_rotation	pelvis_tx	pelvis_ty	pelvis_tz	hip_flexion_r	hip_adduction_r	hip_rotation_r	knee_angle_r	ankle_angle_r	subtalar_angle_r	mtp_angle_r	hip_flexion_l	hip_adduction_l	hip_rotation_l	knee_angle_l	ankle_angle_l	subtalar_angle_l	mtp_angle_l	lumbar_extension	lumbar_bending	lumbar_rotation
      4.05000000	     -9.66123079	      0.49574077	      4.79994696	     -1.79128222	     -0.02203293	     -0.66671145	     32.41293946	     -2.26402944	    -14.59492751	    -11.99555355	     -3.31202307	     -4.10264988	     12.45236517	     -3.83557055	      3.88097818	    -11.72334552	    -13.13043507	     11.93770624	      4.32447603	      7.44639281	      6.42477288	      1.02977507	     -9.82047230
      4.05500000	     -9.66479605	      0.43346532	      4.83721874	     -1.78518863	     -0.02257621	     -0.66620065	     32.39560867	     -2.12565956	    -13.99870943	    -12.64169365	     -3.45329608	     -4.72049093	     10.95326456	     -3.88520209	      3.63195352	    -11.76542598	    -13.80219309	     11.78100308	      4.64178795	      7.29866862	      6.57259128	      1.11843164	     -9.90168699
      4.06000000	     -9.69204118	      0.28777323	      4.90531437	     -1.77894487	     -0.02307098	     -0.66576579	     32.37972536	     -1.94750028	    -13.69027607	    -13.21023431	     -3.82327360	     -5.38256884	     10.31938958	     -3.89368140	      3.29568387	    -11.75895770	    -14.49019704	     11.54760250	      4.84784432	      7.23269630	      6.78191993	      1.29618046	    -10.04869956
      4.06500000	     -9.72030586	      0.15861149	      4.87540163	     -1.77272537	     -0.02353120	     -0.66511558	     32.39126454	     -1.72584907	    -13.30061271	    -13.78501644	     -4.32455112	     -6.15303174	      9.42100441	     -3.89999509	      2.96326174	    -11.87461452	    -15.18537481	     11.31442019	      5.18598121	      7.14167461	      6.98066383	      1.46174677	    -10.11425047
      4.07000000	     -9.75085859	     -0.02308790	      4.91610110	     -1.76645872	     -0.02389368	     -0.66455397	     32.37181959	     -1.50746642	    -13.08942575	    -14.29378008	     -4.85624048	     -6.87884303	      8.63561180	     -3.85648527	      2.56584575	    -11.91233280	    -15.95017973	     11.00267492	      5.45296715	      7.05917679	      7.19524585	      1.67042196	    -10.21972261
      4.07500000	     -9.79574550	     -0.27513334	      4.94115463	     -1.76006562	     -0.02418576	     -0.66406348	     32.35871585	     -1.24840581	    -13.08616611	    -14.76147508	     -5.46137000	     -7.46519867	      8.22438269	     -3.79465828	      2.10931149	    -11.85365490	    -16.71226471	     10.62429825	      5.57866216	      6.99345162	      7.45519707	      1.97137085	    -10.31367490
      4.08000000	     -9.82021041	     -0.44628737	      4.87020515	     -1.75385570	     -0.02445093	     -0.66325485	     32.34214237	     -0.96866461	    -12.69676365	    -15.22913640	     -6.07975837	     -8.43516859	      7.31032018	     -3.69730379	      1.69107754	    -12.13945053	    -17.58235939	     10.26767933	      5.97038932	      6.88231078	      7.64255880	      2.18336855	    -10.34587180
      4.08500000	     -9.85738376	     -0.69295980	      4.75591709	     -1.74748345	     -0.02462554	     -0.66246108	     32.32660233	     -0.61163212	    -12.43962458	    -15.69588893	     -6.60574786	     -9.18022546	      5.96721677	     -3.58671941	      1.20055121	    -12.36428216	    -18.45636816	      9.85367479	      6.27983154	      6.74914497	      7.87572922	      2.49186378	    -10.27166982
      4.09000000	     -9.88716603	     -0.93128470	      4.82194863	     -1.74111840	     -0.02464474	     -0.66195163	     32.26024737	     -0.39838864	    -12.52210971	    -16.10362107	     -7.10781390	     -9.82477823	      5.58628770	     -3.42778012	      0.73230521	    -12.28907331	    -19.37637979	      9.24712044	      6.34719169	      6.65701646	      8.11069649	      2.76500860	    -10.43961856
      4.09500000	     -9.91591738	     -1.13456858	      4.65974291	     -1.73480991	     -0.02469660	     -0.66103303	     32.21668564	     -0.03780576	    -12.08557077	    -16.55360392	     -7.50112935	    -10.69106727	      4.18255888	     -3.23985541	      0.25312602	    -12.67644173	    -20.39214778	      8.71971005	      6.70270211	      6.55844471	      8.30889530	      3.03980516	    -10.33589415
      4.10000000	     -9.93873930	     -1.30187920	      4.63916338	     -1.72849680	     -0.02458314	     -0.66027509	     32.12222936	      0.19733770	    -11.87126665	    -16.95855718	     -7.81278832	    -11.46418011	      3.31164753	     -3.01360894	     -0.18011868	    -12.80033209	    -21.43114751	      7.97678863	      6.86018679	      6.49816793	      8.51216127	      3.23785217	    -10.42028937
      4.10500000	     -9.93569967	     -1.50260184	      4.64627642	     -1.72217957	     -0.02440084	     -0.65968131	     31.97662158	      0.43128124	    -11.79130375	    -17.33541075	     -8.02635704	    -12.08871896	      2.87639282	     -2.75847353	     -0.63914415	    -12.82681882	    -22.54858292	      7.18138597	      6.86596852	      6.43612030	      8.68813636	      3.49293447	    -10.51850093
